<svg xmlns="http://www.w3.org/2000/svg" viewBox="0 0 1180 770" role="img" aria-label="Mockup C: compact menu with three directly launchable tour rows" font-family="-apple-system,BlinkMacSystemFont,Segoe UI,sans-serif"><rect x="0" y="0" width="1180" height="770" rx="0" fill="#0a0c0f" stroke="none"/><rect x="0" y="0" width="1180" height="54" rx="0" fill="#10141a" stroke="none"/><text x="26" y="33" font-size="14" font-weight="750" fill="#e7ebf1">MISSION CONTROL</text><text x="285" y="33" font-size="13" font-weight="600" fill="#35c08a">Fleet</text><text x="350" y="33" font-size="13" font-weight="400" fill="#939eae">Library</text><text x="430" y="33" font-size="13" font-weight="400" fill="#939eae">Archives</text><text x="1090" y="33" font-size="13" font-weight="400" fill="#939eae">⌘ K</text><text x="32" y="94" font-size="24" font-weight="650" fill="#e7ebf1">Fleet</text><text x="32" y="120" font-size="12" font-weight="400" fill="#939eae">Your work, in view.</text><rect x="32" y="148" width="354" height="508" rx="10" fill="#10141a" stroke="#1b2129"/><text x="50" y="178" font-size="11" font-weight="600" fill="#939eae">WORKING</text><rect x="46" y="198" width="326" height="108" rx="9" fill="#14181e" stroke="#303946"/><rect x="60" y="217" width="143" height="7" rx="3" fill="#404b5b" stroke="none"/><rect x="60" y="240" width="260" height="5" rx="2" fill="#252e3a" stroke="none"/><rect x="60" y="254" width="219" height="5" rx="2" fill="#252e3a" stroke="none"/><rect x="46" y="324" width="326" height="108" rx="9" fill="#14181e" stroke="#303946"/><rect x="60" y="343" width="143" height="7" rx="3" fill="#404b5b" stroke="none"/><rect x="60" y="366" width="260" height="5" rx="2" fill="#252e3a" stroke="none"/><rect x="60" y="380" width="219" height="5" rx="2" fill="#252e3a" stroke="none"/><rect x="46" y="450" width="326" height="108" rx="9" fill="#14181e" stroke="#303946"/><rect x="60" y="469" width="143" height="7" rx="3" fill="#404b5b" stroke="none"/><rect x="60" y="492" width="260" height="5" rx="2" fill="#252e3a" stroke="none"/><rect x="60" y="506" width="219" height="5" rx="2" fill="#252e3a" stroke="none"/><rect x="410" y="148" width="354" height="508" rx="10" fill="#10141a" stroke="#1b2129"/><text x="428" y="178" font-size="11" font-weight="600" fill="#939eae">NEEDS YOU</text><rect x="424" y="198" width="326" height="108" rx="9" fill="#14181e" stroke="#303946"/><rect x="438" y="217" width="143" height="7" rx="3" fill="#404b5b" stroke="none"/><rect x="438" y="240" width="260" height="5" rx="2" fill="#252e3a" stroke="none"/><rect x="438" y="254" width="219" height="5" rx="2" fill="#252e3a" stroke="none"/><rect x="424" y="324" width="326" height="108" rx="9" fill="#14181e" stroke="#303946"/><rect x="438" y="343" width="143" height="7" rx="3" fill="#404b5b" stroke="none"/><rect x="438" y="366" width="260" height="5" rx="2" fill="#252e3a" stroke="none"/><rect x="438" y="380" width="219" height="5" rx="2" fill="#252e3a" stroke="none"/><rect x="424" y="450" width="326" height="108" rx="9" fill="#14181e" stroke="#303946"/><rect x="438" y="469" width="143" height="7" rx="3" fill="#404b5b" stroke="none"/><rect x="438" y="492" width="260" height="5" rx="2" fill="#252e3a" stroke="none"/><rect x="438" y="506" width="219" height="5" rx="2" fill="#252e3a" stroke="none"/><rect x="788" y="148" width="354" height="508" rx="10" fill="#10141a" stroke="#1b2129"/><text x="806" y="178" font-size="11" font-weight="600" fill="#939eae">IDLE</text><rect x="802" y="198" width="326" height="108" rx="9" fill="#14181e" stroke="#303946"/><rect x="816" y="217" width="143" height="7" rx="3" fill="#404b5b" stroke="none"/><rect x="816" y="240" width="260" height="5" rx="2" fill="#252e3a" stroke="none"/><rect x="816" y="254" width="219" height="5" rx="2" fill="#252e3a" stroke="none"/><rect x="802" y="324" width="326" height="108" rx="9" fill="#14181e" stroke="#303946"/><rect x="816" y="343" width="143" height="7" rx="3" fill="#404b5b" stroke="none"/><rect x="816" y="366" width="260" height="5" rx="2" fill="#252e3a" stroke="none"/><rect x="816" y="380" width="219" height="5" rx="2" fill="#252e3a" stroke="none"/><rect x="802" y="450" width="326" height="108" rx="9" fill="#14181e" stroke="#303946"/><rect x="816" y="469" width="143" height="7" rx="3" fill="#404b5b" stroke="none"/><rect x="816" y="492" width="260" height="5" rx="2" fill="#252e3a" stroke="none"/><rect x="816" y="506" width="219" height="5" rx="2" fill="#252e3a" stroke="none"/><rect x="0" y="54" width="1180" height="716" rx="0" fill="#030508cc" stroke="none"/><text x="28" y="740" font-size="12" font-weight="600" fill="#939eae">C · Quick-start menu / compact and direct</text><rect x="271" y="139" width="638" height="501" rx="16" fill="#14181e" stroke="#303946"/><text x="301" y="172" font-size="10" font-weight="750" fill="#f6a733">HELP &amp; TOURS</text><text x="301" y="208" font-size="26" font-weight="650" fill="#e7ebf1">Explore Mission Control</text><text x="301" y="233" font-size="13" font-weight="400" fill="#939eae">Pick a tour and get to know your workspace.</text><text x="870" y="174" font-size="22" font-weight="400" fill="#939eae">×</text><rect x="295" y="261" width="590" height="81" rx="9" fill="#171c23" stroke="#303946"/><rect x="311" y="278" width="38" height="38" rx="9" fill="#171c23" stroke="#303946"/><g fill="none" stroke="#f6a733" stroke-width="1.6"><rect x="321" y="288" width="18" height="18" rx="4"/><path d="M326 297l3 3 6-7"/></g><text x="366" y="290" font-size="16" font-weight="650" fill="#e7ebf1">Set up this machine</text><text x="366" y="311" font-size="12" font-weight="400" fill="#939eae">Setup, tools, and repository access</text><text x="366" y="329" font-size="10" font-weight="400" fill="#939eae">7 stops</text><text x="843" y="307" font-size="23" font-weight="400" fill="#f6a733">→</text><rect x="295" y="354" width="590" height="81" rx="9" fill="#171c23" stroke="#303946"/><rect x="311" y="371" width="38" height="38" rx="9" fill="#171c23" stroke="#303946"/><rect x="320" y="381" width="4" height="18" rx="1" fill="#f6a733" stroke="none"/><rect x="327" y="386" width="4" height="13" rx="1" fill="#f6a733" stroke="none"/><rect x="334" y="381" width="4" height="18" rx="1" fill="#f6a733" stroke="none"/><text x="366" y="383" font-size="16" font-weight="650" fill="#e7ebf1">See the work</text><text x="366" y="404" font-size="12" font-weight="400" fill="#939eae">Fleet, Board, and the session desk</text><text x="366" y="422" font-size="10" font-weight="400" fill="#939eae">14 stops</text><text x="843" y="400" font-size="23" font-weight="400" fill="#f6a733">→</text><rect x="295" y="447" width="590" height="81" rx="9" fill="#171c23" stroke="#303946"/><rect x="311" y="464" width="38" height="38" rx="9" fill="#171c23" stroke="#303946"/><rect x="320" y="474" width="4" height="18" rx="1" fill="#f6a733" stroke="none"/><rect x="327" y="474" width="4" height="18" rx="1" fill="#f6a733" stroke="none"/><rect x="334" y="474" width="4" height="18" rx="1" fill="#f6a733" stroke="none"/><text x="366" y="476" font-size="16" font-weight="650" fill="#e7ebf1">Author what runs</text><text x="366" y="497" font-size="12" font-weight="400" fill="#939eae">Personas, Actions, and Workflows</text><text x="366" y="515" font-size="10" font-weight="400" fill="#939eae">15 stops</text><text x="843" y="493" font-size="23" font-weight="400" fill="#f6a733">→</text><path d="M271 576H909" stroke="#303946"/><rect x="301" y="597" width="14" height="14" rx="3" fill="#f6a733" stroke="none"/><text x="303" y="608" font-size="11" font-weight="700" fill="#0a0c0f">✓</text><text x="325" y="609" font-size="12" font-weight="400" fill="#939eae">Show tours when Mission Control opens</text><rect x="777" y="586" width="102" height="38" rx="8" fill="#14181e" stroke="#303946"/><text x="793" y="610" font-size="13" font-weight="650" fill="#e7ebf1">Dismiss</text></svg>